[img]http://img546.imageshack.us/img546/6235/absentia2011film.jpg[/img]

IMDB Link: 
http://www.imdb.com/title/tt1610996/

Description:
A woman and her sister begin to link a mysterious tunnel to a series of disappearances, including that of her own husband.  

MediaInfo:
General
Complete name                    : Absentia.2011.DVDSCR.AC3-5.1.XviD.READNFO-SiC.avi
Format                           : AVI
Format/Info                      : Audio Video Interleave
File size                        : 1.37 GiB
Duration                         : 1h 31mn
Overall bit rate                 : 2 145 Kbps

Video
ID                               : 0
Format                           : MPEG-4 Visual
Format profile                   : Advanced Simple@L5
Format settings, BVOP            : 1
Format settings, QPel            : No
Format settings, GMC             : No warppoints
Format settings, Matrix          : Default (H.263)
Codec ID                         : XVID
Codec ID/Hint                    : XviD
Duration                         : 1h 31mn
Bit rate                         : 1 753 Kbps
Width                            : 720 pixels
Height                           : 400 pixels
Display aspect ratio             : 16:9
Frame rate                       : 23.976 fps
Color space                      : YUV
Chroma subsampling               : 4:2:0
Bit depth                        : 8 bits
Scan type                        : Progressive
Compression mode                 : Lossy
Bits/(Pixel*Frame)               : 0.254
Stream size                      : 1.12 GiB (82%)
Writing library                  : XviD 1.2.1 (UTC 2008-12-04)

Audio
ID                               : 1
Format                           : AC-3
Format/Info                      : Audio Coding 3
Mode extension                   : CM (complete main)
Codec ID                         : 2000
Duration                         : 1h 31mn
Bit rate mode                    : Constant
Bit rate                         : 384 Kbps
Channel(s)                       : 6 channels
Channel positions                : Front: L C R, Side: L R, LFE
Sampling rate                    : 48.0 KHz
Bit depth                        : 16 bits
Compression mode                 : Lossy
Stream size                      : 250 MiB (18%)
Alignment                        : Aligned on interleaves
Interleave, duration             : 64 ms (1.53 video frames)
Interleave, preload duration     : 192 ms
Title                            : Absentia.track_1_

A woman and her sister begin to link a mysterious tunnel to a series of disappearances, including that of her own husband.

[img]http://http://img641.imageshack.us/img641/5436/vlcsnap2012020320h57m25.png[/img]
[img]http://img535.imageshack.us/img535/370/vlcsnap2012020320h57m34.png[/img]
[img]http://img24.imageshack.us/img24/2555/vlcsnap2012020320h57m45.png[/img]
[img]http://img403.imageshack.us/img403/3699/vlcsnap2012020320h57m54.png[/img]
[img]http://img710.imageshack.us/img710/719/vlcsnap2012020320h58m02.png[/img]